<svg xmlns="http://www.w3.org/2000/svg" viewBox="0 0 809.41 250.63"><defs><style>.cls-1{fill:#9c1229;stroke:#093566;stroke-miterlimit:10;stroke-width:2px;}.cls-2{font-size:101.67px;fill:#093566;font-family:FuturaBT-BoldCondensed, Futura BdCn BT;font-weight:700;}</style></defs><title>logo_ofi</title><g id="Capa_2" data-name="Capa 2"><g id="Capa_1-2" data-name="Capa 1"><path class="cls-1" d="M4.23,225.6,225.63,4.21a11,11,0,0,1,15.49,0L462.52,225.6a11,11,0,0,1-7.74,18.7h-31a11,11,0,0,1-7.75-3.21L241.12,66.17a11,11,0,0,0-15.49,0L50.7,241.09A11,11,0,0,1,43,244.3H12A11,11,0,0,1,4.23,225.6Z"/><path class="cls-1" d="M128.15,194.62l97.48-97.47a11,11,0,0,1,15.49,0l97.48,97.47a11,11,0,0,1-7.74,18.7h0a10.93,10.93,0,0,1-7.75-3.21l-82-82a11,11,0,0,0-15.49,0l-82,82a10.92,10.92,0,0,1-7.74,3.21h0A11,11,0,0,1,128.15,194.62Z"/><text class="cls-2" transform="translate(481.16 122.65)">Empresa <tspan x="0" y="104" xml:space="preserve">   J&amp;F</tspan></text><rect class="cls-1" x="202.4" y="182.34" width="61.96" height="61.96" rx="7.74" ry="7.74"/></g></g></svg>